# xmcd CD database file
#
# Track frame offsets:
#	225
#	19775
#	37595
#	52525
#	66197
#	83687
#	100437
#	121837
#	135922
#	154135
#	169240
#	186160
#
# Disc length: 2651 seconds
#
# Revision: 0
# Processed by: cddbd v1.5.2PL0 Copyright (c) Steve Scherf et al.
# Submitted via: CDex 1.70beta2
#
DISCID=890a580c
DTITLE=Ohaři - Stopy do snů
DYEAR=1900
DGENRE=Country
TTITLE0=Toužím si dál s ohněm hrát
TTITLE1=Půlnoc
TTITLE2=Pár je to let
TTITLE3=Už se stmívá
TTITLE4=Prý mi ujel vlak
TTITLE5=Colorado
TTITLE6=Dál mi zní
TTITLE7=Ypsilon
TTITLE8=Duha
TTITLE9=Pojedu dál
TTITLE10=Smolař
TTITLE11=Stačím vám zamávat
EXTD=
EXTT0=
EXTT1=
EXTT2=
EXTT3=
EXTT4=
EXTT5=
EXTT6=
EXTT7=
EXTT8=
EXTT9=
EXTT10=
EXTT11=
PLAYORDER=
